<svg width="21" height="22" viewBox="0 0 21 22" fill="none" xmlns="http://www.w3.org/2000/svg">
<g id="Logo">
<path id="Union" d="M16.3759 10.7843C16.3166 10.8442 16.2852 10.9216 16.2819 11C16.2852 11.0784 16.3166 11.1558 16.3759 11.2157L20.1374 14.9904C20.3531 15.241 20.4028 15.4232 20.436 15.6883C20.4933 16.146 20.1692 16.5664 19.7081 17.0629C18.1708 18.7177 16.5197 20.2789 14.9268 21.8805C14.7682 22.0398 14.5105 22.0398 14.3519 21.8805L7.1056 14.601C6.94703 14.4417 6.68925 14.4417 6.53068 14.601L0.469205 20.6862C0.460264 20.6952 0.450504 20.7042 0.439934 20.7123C0.262657 20.8528 0 20.7099 0 20.4828V14.7652C0 14.6565 0.0430972 14.5536 0.118726 14.4768L3.30641 11.2745C3.38209 11.1985 3.42165 11.0998 3.42509 11C3.42165 10.9002 3.38209 10.8015 3.30641 10.7255L0.118726 7.52317C0.0430972 7.44638 0 7.34345 0 7.2348V1.51722C0 1.29012 0.262657 1.14715 0.439934 1.28767C0.450504 1.29583 0.460264 1.30482 0.469205 1.3138L6.53068 7.39901C6.68925 7.5583 6.94703 7.5583 7.1056 7.39901L14.3519 0.119478C14.5105 -0.0398262 14.7682 -0.0398262 14.9268 0.119478C16.5197 1.72104 18.1712 3.28197 19.7081 4.93712C20.1692 5.43361 20.4933 5.85404 20.436 6.31175C20.4028 6.57681 20.3531 6.75904 20.1374 7.0096L16.3759 10.7843Z" fill="url(#paint0_linear_354_712)"/>
<path id="Union_2" d="M17.8809 10.6589C17.7869 10.7534 17.7387 10.8764 17.7363 11C17.7387 11.1236 17.7869 11.2466 17.8809 11.341H17.8801C17.8801 11.341 20.4827 13.8684 20.7845 14.3464C20.9832 14.6611 20.9998 14.7936 20.9998 14.7936V7.2063C20.9998 7.2063 20.9832 7.33883 20.7845 7.65359C20.4827 8.13153 17.8801 10.6589 17.8801 10.6589H17.8809Z" fill="#FF681C"/>
</g>
<defs>
<linearGradient id="paint0_linear_354_712" x1="-1.48484e-07" y1="10.895" x2="16.2273" y2="10.895" gradientUnits="userSpaceOnUse">
<stop stop-color="#F4912A"/>
<stop offset="1" stop-color="#FF681C"/>
</linearGradient>
</defs>
</svg>
